<?xml version="1.0" encoding="UTF-8" standalone="no"?>
<svg
   xmlns:dc="http://purl.org/dc/elements/1.1/"
   xmlns:cc="http://creativecommons.org/ns#"
   xmlns:rdf="http://www.w3.org/1999/02/22-rdf-syntax-ns#"
   xmlns:svg="http://www.w3.org/2000/svg"
   xmlns="http://www.w3.org/2000/svg"
   xmlns:sodipodi="http://sodipodi.sourceforge.net/DTD/sodipodi-0.dtd"
   xmlns:inkscape="http://www.inkscape.org/namespaces/inkscape"
   width="1024"
   height="279.379"
   id="svg2"
   version="1.1"
   inkscape:version="0.48.4 r9939"
   sodipodi:docname="Asiatic-Pacific_Campaign_Medal_ribbon.svg">
  <metadata
     id="metadata18">
    <rdf:RDF>
      <cc:Work
         rdf:about="">
        <dc:format>image/svg+xml</dc:format>
        <dc:type
           rdf:resource="http://purl.org/dc/dcmitype/StillImage" />
      </cc:Work>
    </rdf:RDF>
  </metadata>
  <defs
     id="defs16" />
  <sodipodi:namedview
     pagecolor="#ffffff"
     bordercolor="#666666"
     borderopacity="1"
     objecttolerance="10"
     gridtolerance="10"
     guidetolerance="10"
     inkscape:pageopacity="0"
     inkscape:pageshadow="2"
     inkscape:window-width="1920"
     inkscape:window-height="1096"
     id="namedview14"
     showgrid="false"
     fit-margin-top="0"
     fit-margin-left="0"
     fit-margin-right="0"
     fit-margin-bottom="0"
     inkscape:zoom="0.71698574"
     inkscape:cx="31.925444"
     inkscape:cy="-116.15327"
     inkscape:window-x="-8"
     inkscape:window-y="-8"
     inkscape:window-maximized="1"
     inkscape:current-layer="svg2" />
  <path
     d="M 0,0.00503 H 1024 V 279.379 H 0"
     id="path4"
     inkscape:connector-curvature="0"
     style="fill:#ffc72c;fill-opacity:1" />
  <path
     d="M 122.63473,0.00503 V 279.379 H 269.79641 V 0.00503"
     id="path10"
     inkscape:connector-curvature="0"
     style="fill:#ffffff" />
  <path
     d="M 171.68862,0.00503 V 279.379 h 49.05389 V 0.00503"
     id="path10-7"
     inkscape:connector-curvature="0"
     style="fill:#ba0c2f;fill-opacity:1" />
  <path
     d="M 561.05389,0.00503 V 279.379 H 462.94611 V 0.00503"
     id="path10-7-4"
     inkscape:connector-curvature="0"
     style="fill:#ffffff" />
  <path
     d="M 462.94611,0.00503 V 279.379 h 32.7026 V 0.00503"
     id="path10-9"
     inkscape:connector-curvature="0"
     style="fill:#012169;fill-opacity:1" />
  <path
     d="M 561.05389,0.00503 V 279.379 h -32.7026 V 0.00503"
     id="path10-7-48"
     inkscape:connector-curvature="0"
     style="fill:#ba0c2f;fill-opacity:1" />
  <path
     d="M 754.20359,0.00503 V 279.379 H 901.36527 V 0.00503"
     id="path10-8"
     inkscape:connector-curvature="0"
     style="fill:#ffffff" />
  <path
     d="M 803.25749,0.00503 V 279.379 h 49.05389 V 0.00503"
     id="path10-7-2"
     inkscape:connector-curvature="0"
     style="fill:#ba0c2f;fill-opacity:1" />
  <path
     style="font-size:medium;font-style:normal;font-variant:normal;font-weight:normal;font-stretch:normal;text-indent:0;text-align:start;text-decoration:none;line-height:normal;letter-spacing:normal;word-spacing:normal;text-transform:none;direction:ltr;block-progression:tb;writing-mode:lr-tb;text-anchor:start;baseline-shift:baseline;color:#000000;fill:#000000;fill-opacity:0.25;fill-rule:nonzero;stroke:none;stroke-width:106;marker:none;visibility:visible;display:inline;overflow:visible;enable-background:accumulate;font-family:Sans;-inkscape-font-specification:Sans"
     d="m 0,9.63375 1024,0 L 1024,0 0,0 z m 0,19.26754 1024,0 0,-9.63377 -1024,0 z m 0,19.26752 1024,0 0,-9.63375 -1024,0 z m 0,19.26752 1024,0 0,-9.63378 -1024,0 z m 0,19.26751 1024,0 0,-9.63377 -1024,0 z m 0,19.26752 1024,0 0,-9.63375 -1024,0 z m 0,19.26751 1024,0 0,-9.63377 -1024,0 z m 0,19.26752 1024,0 0,-9.63378 -1024,0 z m 0,19.26751 1024,0 0,-9.63374 -1024,0 z m 0,19.26752 1024,0 0,-9.63377 -1024,0 z m 0,19.26752 1024,0 0,-9.63378 -1024,0 z m 0,19.26751 1024,0 0,-9.63374 -1024,0 z m 0,19.26752 1024,0 0,-9.63377 -1024,0 z m 0,19.26751 1024,0 0,-9.63377 -1024,0 z m 0,19.26752 1024,0 0,-9.63374 -1024,0 z"
     id="path12"
     inkscape:connector-curvature="0" />
</svg>
